<svg width="32" height="32" viewBox="0 0 32 32" fill="none" xmlns="http://www.w3.org/2000/svg">
<g id="fi-br-arrow-small-right">
<path id="Vector" d="M22.7478 12.7001L17.9665 7.91875C17.5913 7.54374 17.0825 7.33313 16.552 7.33325C16.0216 7.33338 15.5129 7.54423 15.1378 7.91942C14.7628 8.29461 14.5522 8.80341 14.5523 9.33389C14.5525 9.86437 14.7633 10.3731 15.1385 10.7481L18.3905 14.0001H6.6665C6.13607 14.0001 5.62736 14.2108 5.25229 14.5859C4.87722 14.9609 4.6665 15.4697 4.6665 16.0001C4.6665 16.5305 4.87722 17.0392 5.25229 17.4143C5.62736 17.7894 6.13607 18.0001 6.6665 18.0001H18.3905L15.1385 21.2521C14.7633 21.6271 14.5525 22.1358 14.5523 22.6663C14.5522 23.1968 14.7628 23.7056 15.1378 24.0808C15.5129 24.4559 16.0216 24.6668 16.552 24.6669C17.0825 24.667 17.5913 24.4564 17.9665 24.0814L22.7478 19.3001C23.6215 18.424 24.1121 17.2373 24.1121 16.0001C24.1121 14.7629 23.6215 13.5761 22.7478 12.7001Z" fill="#46237A"/>
</g>
</svg>
